<?xml version="1.0" encoding="utf-8"?>
<?xml-stylesheet type="text/xsl" href="rss1.xsl"?>
<rss version="2.0" xmlns:atom="http://www.w3.org/2005/Atom" xmlns:content="http://purl.org/rss/1.0/modules/content/" xmlns:dc="http://purl.org/dc/elements/1.1/" xmlns:media="http://search.yahoo.com/mrss/">
<channel>
 <title>Getty</title>
 <link>http://www.gettyimg.com/</link>
 <atom:link href="http://www.gettyimg.com/" rel="self" type="application/rss+xml" />

 
                <item>
                <title><![CDATA[【SD Live Performances】SDTV - Patti LaBelle feat. Mariah Carey - Got To Be Real (live Hammerstein Ballroom 1998)]]></title>
                <link><![CDATA[https://sharemania.us/threads/patti-labelle-feat-mariah-carey-got-to-be-real-live-hammerstein-ballroom-1998.240776/]]></link>
                <description><![CDATA[<article>
<blockquote class="messageText SelectQuoteContainer ugc baseHtml">
<span style="font-size: 22px"><b>Patti LaBelle feat. Mariah Carey - Got To Be Real (live Hammerstein Ballroom) <b>06.03.1998</b></b><br>
<b><b><img src="https://i.imgur.com/I6jM377.jpeg" class="bbCodeImage LbImage" alt="[​IMG]" data-url="https://i.imgur.com/I6jM377.jpeg" style=""> </b></b><br>
<b><b><img src="https://i.imgur.com/nFQPO2Z.jpg" class="bbCodeImage LbImage" alt="[​IMG]" data-url="https://i.imgur.com/nFQPO2Z.jpg" style=""> </b></b></span><br>
<div class="ToggleTriggerAnchor bbCodeSpoilerContainer">
<button type="button" class="button bbCodeSpoilerButton ToggleTrigger Tooltip JsOnly" data-target="> .SpoilerTarget"><span>Spoiler: <span class="SpoilerTitle">MediaInfo</span></span></button>
<div class="SpoilerTarget bbCodeSpoilerText">General<br>
Complete name : C:\Users\Admin\Videos\Patti LaBelle - Live!\VIDEO_TS\Patti LaBelle feat. Mariah Carey(live 6.3.1998).mp4<br>
Format : MPEG-4<br>
Format profile : Base Media<br>
Codec ID : isom (mp41/avc1)<br>
File size : 167 MiB<br>
Duration : 3 min 25 s<br>
Overall bit rate mode : Variable<br>
Overall bit rate : 6 806 kb/s<br>
Encoded date : UTC 2024-03-26 17:39:22<br>
Tagged date : UTC 2024-03-26 17:39:22<br>
Writing application : vlc 3.0.20 stream output<br>
<br>
Video<br>
ID : 2<br>
Format : MPEG Video<br>
Format version : Version 2<br>
Format profile : Main@Main<br>
Format settings : BVOP<br>
Format settings, BVOP : Yes<br>
Format settings, Matrix : Default<br>
Format settings, GOP : M=3, N=10<br>
Format settings, picture struc : Frame<br>
Codec ID : mp4v-61<br>
Duration : 3 min 25 s<br>
Bit rate mode : Variable<br>
Bit rate : 6 421 kb/s<br>
Maximum bit rate : 8 000 kb/s<br>
Width : 720 pixels<br>
Height : 480 pixels<br>
Display aspect ratio : 4:3<br>
Frame rate mode : Constant<br>
Frame rate : 29.970 (30000/1001) FPS<br>
Standard : NTSC<br>
Color space : YUV<br>
Chroma subsampling : 4:2:0<br>
Bit depth : 8 bits<br>
Scan type : Interlaced<br>
Scan order : Top Field First<br>
Compression mode : Lossy<br>
Bits/(Pixel*Frame) : 0.620<br>
Time code of first frame : 01:54:44:20<br>
Time code source : Group of pictures header<br>
GOP, Open/Closed : Open<br>
Stream size : 157 MiB (94%)<br>
Language : English<br>
Encoded date : UTC 2024-03-26 17:39:22<br>
Tagged date : UTC 2024-03-26 17:39:22<br>
Color primaries : BT.601 NTSC<br>
Transfer characteristics : BT.601<br>
Matrix coefficients : BT.601<br>
mdhd_Duration : 205639<br>
<br>
Audio<br>
ID : 1<br>
Format : AC-3<br>
Format/Info : Audio Coding 3<br>
Commercial name : Dolby Digital<br>
Codec ID : ac-3<br>
Duration : 3 min 25 s<br>
Bit rate mode : Constant<br>
Bit rate : 384 kb/s<br>
Channel(s) : 2 channels<br>
Channel layout : L R<br>
Sampling rate : 48.0 kHz<br>
Frame rate : 31.250 FPS (1536 SPF)<br>
Compression mode : Lossy<br>
Stream size : 9.42 MiB (6%)<br>
Language : English<br>
Service kind : Complete Main<br>
Encoded date : UTC 2024-03-26 17:39:22<br>
Tagged date : UTC 2024-03-26 17:39:22</div>
</div>
<div class="bbCodeBlock bbCodeVfcHH HiddenContent">
<div class="attribution type">Hidden Content:</div>
<blockquote>You must reply before you can see the hidden data contained here.</blockquote>
</div>
<div class="messageTextEndMarker">&nbsp;</div>
</blockquote>
</article>]]></description>
                <author><![CDATA[BERNXMRG]]></author>
                </item>

                
                <item>
                <title><![CDATA[【Unreleased/Unofficial (lossy)】M4A - Xuxa - Talk To Me! (Unofficial English Album)]]></title>
                <link><![CDATA[https://sharemania.us/threads/xuxa-talk-to-me-unofficial-english-album.240778/]]></link>
                <description><![CDATA[<article>
<blockquote class="messageText SelectQuoteContainer ugc baseHtml">
<span style="font-family: 'Verdana'"><span style="font-size: 18px"><b>Artist</b>: Xuxa<br>
<b>Album:</b> Talk To Me!<br>
<b>Year:</b> 1993<br>
<b>Size: </b>151,7 MB<br>
<b>Format:</b> M4A</span></span><br>
<br>
<img src="https://i.ibb.co/nzP03NN/IMG-1780.jpg" class="bbCodeImage LbImage" alt="[​IMG]" data-url="https://i.ibb.co/nzP03NN/IMG-1780.jpg" style=""> <br>
<br>
<span style="font-family: 'Verdana'"><span style="font-size: 22px"><span style="color: #0000ff"><b>TRACKLIST:</b></span></span><br>
<span style="color: #000000"><b>1. Do Say</b><br>
<b>2. Our Song Of Peace</b></span></span><br>
<b><span style="color: #000000"><span style="font-family: 'Verdana'">3. Crazy About You </span></span></b><br>
<span style="font-family: 'Verdana'"><span style="color: #000000"><b>4. Froggy, Froggy</b><br>
<b>5. Shindolele</b><br>
<b>6. Xuxa's Dance</b><br>
<b>7. Mark an X</b><br>
<b>8. It's time For Xuxa</b><br>
<b>9. Rainbow</b><br>
<b>10. Today's Happy Day</b><br>
<b>11. Xuxa's Alphabet</b><br>
<b>12. Talk To Me!</b><br>
<b>13. Ilariê</b><br>
<b>14. The Miracle Of Life</b><br>
<b>15. Whole America</b><br>
<b>16. Say No To Drugs</b><br>
<b>17. Xuxa's Xpecial Recipe</b><br>
<b>18. Suzanna!</b><br>
<b>19. Life Is A Party</b><br>
<b>20. We Life For Love</b></span></span><br>
<br>
<div class="bbCodeBlock bbCodeVfcHH HiddenContent">
<div class="attribution type">Hidden Content:</div>
<blockquote>You must either reply or click 'Like' to see the hidden information contained here.</blockquote>
</div>
<div class="messageTextEndMarker">&nbsp;</div>
</blockquote>
</article>]]></description>
                <author><![CDATA[HugoGM1988]]></author>
                </item>

                
                <item>
                <title><![CDATA[【Requests】[REQ VID] - Pitty (Des)Concerto]]></title>
                <link><![CDATA[https://sharemania.us/threads/pitty-des-concerto.240775/]]></link>
                <description><![CDATA[<article>
<blockquote class="messageText SelectQuoteContainer ugc baseHtml">
Alguém ainda com o link do DVD?
<div class="messageTextEndMarker">&nbsp;</div>
</blockquote>
</article>]]></description>
                <author><![CDATA[JaH]]></author>
                </item>

                
                <item>
                <title><![CDATA[【Unreleased/Unofficial (lossy)】M4A - Xuxa - Talk To Me! (Unofficial English Album)]]></title>
                <link><![CDATA[https://sharemania.us/threads/xuxa-talk-to-me-unofficial-english-album.240779/]]></link>
                <description><![CDATA[<article>
<blockquote class="messageText SelectQuoteContainer ugc baseHtml">
<span style="font-family: 'Verdana'"><span style="font-size: 18px"><b>Artist</b>: Xuxa<br>
<b>Album:</b> Talk To Me!<br>
<b>Year:</b> 1993<br>
<b>Size: </b>151,7 MB<br>
<b>Format:</b> M4A</span></span><br>
<br>
<img src="https://i.ibb.co/nzP03NN/IMG-1780.jpg" class="bbCodeImage LbImage" alt="[​IMG]" data-url="https://i.ibb.co/nzP03NN/IMG-1780.jpg" style=""> <br>
<br>
<span style="font-family: 'Verdana'"><span style="font-size: 22px"><span style="color: #0000ff"><b>TRACKLIST:</b></span></span><br>
<span style="color: #000000"><b>1. Do Say</b><br>
<b>2. Our Song Of Peace</b></span></span><br>
<b><span style="color: #000000"><span style="font-family: 'Verdana'">3. Crazy About You </span></span></b><br>
<span style="font-family: 'Verdana'"><span style="color: #000000"><b>4. Froggy, Froggy</b><br>
<b>5. Shindolele</b><br>
<b>6. Xuxa's Dance</b><br>
<b>7. Mark an X</b><br>
<b>8. It's time For Xuxa</b><br>
<b>9. Rainbow</b><br>
<b>10. Today's Happy Day</b><br>
<b>11. Xuxa's Alphabet</b><br>
<b>12. Talk To Me!</b><br>
<b>13. Ilariê</b><br>
<b>14. The Miracle Of Life</b><br>
<b>15. Whole America</b><br>
<b>16. Say No To Drugs</b><br>
<b>17. Xuxa's Xpecial Recipe</b><br>
<b>18. Suzanna!</b><br>
<b>19. Life Is A Party</b><br>
<b>20. We Life For Love</b></span></span><br>
<br>
<div class="bbCodeBlock bbCodeVfcHH HiddenContent">
<div class="attribution type">Hidden Content:</div>
<blockquote>You must either reply or click 'Like' to see the hidden information contained here.</blockquote>
</div>
<div class="messageTextEndMarker">&nbsp;</div>
</blockquote>
</article>]]></description>
                <author><![CDATA[HugoGM1988]]></author>
                </item>

                
                <item>
                <title><![CDATA[【SD Live Performances】SDTV - Patti LaBelle feat. Mariah Carey - Got To Be Real (live Hammerstein Ballroom 1998)]]></title>
                <link><![CDATA[https://sharemania.us/threads/patti-labelle-feat-mariah-carey-got-to-be-real-live-hammerstein-ballroom-1998.240777/]]></link>
                <description><![CDATA[<article>
<blockquote class="messageText SelectQuoteContainer ugc baseHtml">
<span style="font-size: 22px"><b>Patti LaBelle feat. Mariah Carey - Got To Be Real (live Hammerstein Ballroom) <b>06.03.1998</b></b><br>
<b><b><img src="https://i.imgur.com/I6jM377.jpeg" class="bbCodeImage LbImage" alt="[​IMG]" data-url="https://i.imgur.com/I6jM377.jpeg" style=""> </b></b><br>
<b><b><img src="https://i.imgur.com/nFQPO2Z.jpg" class="bbCodeImage LbImage" alt="[​IMG]" data-url="https://i.imgur.com/nFQPO2Z.jpg" style=""> </b></b></span><br>
<div class="ToggleTriggerAnchor bbCodeSpoilerContainer">
<button type="button" class="button bbCodeSpoilerButton ToggleTrigger Tooltip JsOnly" data-target="> .SpoilerTarget"><span>Spoiler: <span class="SpoilerTitle">MediaInfo</span></span></button>
<div class="SpoilerTarget bbCodeSpoilerText">General<br>
Complete name : C:\Users\Admin\Videos\Patti LaBelle - Live!\VIDEO_TS\Patti LaBelle feat. Mariah Carey(live 6.3.1998).mp4<br>
Format : MPEG-4<br>
Format profile : Base Media<br>
Codec ID : isom (mp41/avc1)<br>
File size : 167 MiB<br>
Duration : 3 min 25 s<br>
Overall bit rate mode : Variable<br>
Overall bit rate : 6 806 kb/s<br>
Encoded date : UTC 2024-03-26 17:39:22<br>
Tagged date : UTC 2024-03-26 17:39:22<br>
Writing application : vlc 3.0.20 stream output<br>
<br>
Video<br>
ID : 2<br>
Format : MPEG Video<br>
Format version : Version 2<br>
Format profile : Main@Main<br>
Format settings : BVOP<br>
Format settings, BVOP : Yes<br>
Format settings, Matrix : Default<br>
Format settings, GOP : M=3, N=10<br>
Format settings, picture struc : Frame<br>
Codec ID : mp4v-61<br>
Duration : 3 min 25 s<br>
Bit rate mode : Variable<br>
Bit rate : 6 421 kb/s<br>
Maximum bit rate : 8 000 kb/s<br>
Width : 720 pixels<br>
Height : 480 pixels<br>
Display aspect ratio : 4:3<br>
Frame rate mode : Constant<br>
Frame rate : 29.970 (30000/1001) FPS<br>
Standard : NTSC<br>
Color space : YUV<br>
Chroma subsampling : 4:2:0<br>
Bit depth : 8 bits<br>
Scan type : Interlaced<br>
Scan order : Top Field First<br>
Compression mode : Lossy<br>
Bits/(Pixel*Frame) : 0.620<br>
Time code of first frame : 01:54:44:20<br>
Time code source : Group of pictures header<br>
GOP, Open/Closed : Open<br>
Stream size : 157 MiB (94%)<br>
Language : English<br>
Encoded date : UTC 2024-03-26 17:39:22<br>
Tagged date : UTC 2024-03-26 17:39:22<br>
Color primaries : BT.601 NTSC<br>
Transfer characteristics : BT.601<br>
Matrix coefficients : BT.601<br>
mdhd_Duration : 205639<br>
<br>
Audio<br>
ID : 1<br>
Format : AC-3<br>
Format/Info : Audio Coding 3<br>
Commercial name : Dolby Digital<br>
Codec ID : ac-3<br>
Duration : 3 min 25 s<br>
Bit rate mode : Constant<br>
Bit rate : 384 kb/s<br>
Channel(s) : 2 channels<br>
Channel layout : L R<br>
Sampling rate : 48.0 kHz<br>
Frame rate : 31.250 FPS (1536 SPF)<br>
Compression mode : Lossy<br>
Stream size : 9.42 MiB (6%)<br>
Language : English<br>
Service kind : Complete Main<br>
Encoded date : UTC 2024-03-26 17:39:22<br>
Tagged date : UTC 2024-03-26 17:39:22</div>
</div>
<div class="bbCodeBlock bbCodeVfcHH HiddenContent">
<div class="attribution type">Hidden Content:</div>
<blockquote>You must reply before you can see the hidden data contained here.</blockquote>
</div>
<div class="messageTextEndMarker">&nbsp;</div>
</blockquote>
</article>]]></description>
                <author><![CDATA[BERNXMRG]]></author>
                </item>

                
                <item>
                <title><![CDATA[【Requests】[REQ AUD] - VALORANT &amp; Madge - 2 Worlds [FLAC]]]></title>
                <link><![CDATA[https://sharemania.us/threads/valorant-madge-2-worlds-flac.240780/]]></link>
                <description><![CDATA[<article>
<blockquote class="messageText SelectQuoteContainer ugc baseHtml">
- Links:<br>
- Tidal: <a href="https://tidal.com/browse/track/344711947" target="_blank" class="externalLink" rel="nofollow">https://tidal.com/browse/track/344711947</a><br>
- All Platforms: <a href="https://valorant.ffm.to/2worlds" target="_blank" class="externalLink" rel="nofollow">https://valorant.ffm.to/2worlds</a>
<div class="messageTextEndMarker">&nbsp;</div>
</blockquote>
</article>]]></description>
                <author><![CDATA[なかのうた]]></author>
                </item>

                </channel></rss>